<mxfile host="app.diagrams.net" modified="2023-07-06T08:16:34.617Z" agent="Mozilla/5.0 (Macintosh; Intel Mac OS X 10_15_7) AppleWebKit/537.36 (KHTML, like Gecko) Chrome/114.0.0.0 Safari/537.36" etag="o_IXfx5Cm6fi0NPrJPHO" version="21.6.1" type="github">
  <diagram name="第 1 页" id="b7lrdDDQH2SFksMaoX_b">
    <mxGraphModel dx="1256" dy="843" grid="1" gridSize="10" guides="1" tooltips="1" connect="1" arrows="1" fold="1" page="1" pageScale="1" pageWidth="827" pageHeight="1169" math="0" shadow="0">
      <root>
        <mxCell id="0" />
        <mxCell id="1" parent="0" />
        <mxCell id="xALBU6dETPJH44ZZ7pxK-3" value="" style="edgeStyle=orthogonalEdgeStyle;rounded=0;orthogonalLoop=1;jettySize=auto;html=1;" edge="1" parent="1" source="xALBU6dETPJH44ZZ7pxK-1" target="xALBU6dETPJH44ZZ7pxK-2">
          <mxGeometry relative="1" as="geometry" />
        </mxCell>
        <mxCell id="xALBU6dETPJH44ZZ7pxK-1" value="" style="rounded=0;whiteSpace=wrap;html=1;" vertex="1" parent="1">
          <mxGeometry x="180" y="250" width="120" height="60" as="geometry" />
        </mxCell>
        <mxCell id="xALBU6dETPJH44ZZ7pxK-5" value="" style="edgeStyle=orthogonalEdgeStyle;rounded=0;orthogonalLoop=1;jettySize=auto;html=1;" edge="1" parent="1" source="xALBU6dETPJH44ZZ7pxK-2" target="xALBU6dETPJH44ZZ7pxK-4">
          <mxGeometry relative="1" as="geometry" />
        </mxCell>
        <mxCell id="xALBU6dETPJH44ZZ7pxK-2" value="" style="ellipse;whiteSpace=wrap;html=1;rounded=0;" vertex="1" parent="1">
          <mxGeometry x="400" y="240" width="80" height="80" as="geometry" />
        </mxCell>
        <mxCell id="xALBU6dETPJH44ZZ7pxK-4" value="" style="shape=step;perimeter=stepPerimeter;whiteSpace=wrap;html=1;fixedSize=1;rounded=0;" vertex="1" parent="1">
          <mxGeometry x="380" y="400" width="120" height="80" as="geometry" />
        </mxCell>
        <mxCell id="xALBU6dETPJH44ZZ7pxK-6" value="" style="endArrow=classic;html=1;rounded=0;" edge="1" parent="1">
          <mxGeometry width="50" height="50" relative="1" as="geometry">
            <mxPoint x="380" y="560" as="sourcePoint" />
            <mxPoint x="600" y="550" as="targetPoint" />
          </mxGeometry>
        </mxCell>
      </root>
    </mxGraphModel>
  </diagram>
</mxfile>
